<?xml version="1.0" encoding="UTF-8" standalone="no"?>
<!DOCTYPE svg PUBLIC "-//W3C//DTD SVG 1.1//EN"
 "http://www.w3.org/Graphics/SVG/1.1/DTD/svg11.dtd">
<!-- Generated by graphviz version 9.0.0 (20230911.1827)
 -->
<!-- Title: _5900409760 Pages: 1 -->
<svg width="1297pt" height="743pt"
 viewBox="0.00 0.00 1296.75 743.00" xmlns="http://www.w3.org/2000/svg" xmlns:xlink="http://www.w3.org/1999/xlink">
<g id="graph0" class="graph" transform="scale(1 1) rotate(0) translate(4 739)">
<title>_5900409760</title>
<polygon fill="white" stroke="none" points="-4,4 -4,-739 1292.75,-739 1292.75,4 -4,4"/>
<g id="clust1" class="cluster">
<title>cluster5900409760diagram</title>
<polygon fill="none" stroke="black" points="8,-8 8,-727 1280.75,-727 1280.75,-8 8,-8"/>
<text text-anchor="middle" x="644.38" y="-709.7" font-family="Times,serif" font-size="14.00">5900409760</text>
</g>
<g id="clust4" class="cluster">
<title>cluster5900409760subsystems</title>
<polygon fill="none" stroke="white" points="16,-16 16,-694 1272.75,-694 1272.75,-16 16,-16"/>
</g>
<!-- 4530088448 -->
<g id="node1" class="node">
<title>4530088448</title>
<polygon fill="none" stroke="black" points="24,-146.5 24,-685.5 509.75,-685.5 509.75,-146.5 24,-146.5"/>
<text text-anchor="middle" x="266.88" y="-668.2" font-family="Times,serif" font-size="14.00">plant</text>
<polyline fill="none" stroke="black" points="24,-661 509.75,-661"/>
<text text-anchor="middle" x="120.88" y="-619.2" font-family="Times,serif" font-size="14.00">geometry_query</text>
<polyline fill="none" stroke="black" points="24,-587.5 217.75,-587.5"/>
<text text-anchor="middle" x="120.88" y="-545.7" font-family="Times,serif" font-size="14.00">WorldModelInstance_actuation</text>
<polyline fill="none" stroke="black" points="24,-514 217.75,-514"/>
<text text-anchor="middle" x="120.88" y="-472.2" font-family="Times,serif" font-size="14.00">DefaultModelInstance_actuation</text>
<polyline fill="none" stroke="black" points="24,-440.5 217.75,-440.5"/>
<text text-anchor="middle" x="120.88" y="-398.7" font-family="Times,serif" font-size="14.00">KneedCompassGait_actuation</text>
<polyline fill="none" stroke="black" points="24,-367 217.75,-367"/>
<text text-anchor="middle" x="120.88" y="-325.2" font-family="Times,serif" font-size="14.00">actuation</text>
<polyline fill="none" stroke="black" points="24,-293.5 217.75,-293.5"/>
<text text-anchor="middle" x="120.88" y="-251.7" font-family="Times,serif" font-size="14.00">applied_generalized_force</text>
<polyline fill="none" stroke="black" points="24,-220 217.75,-220"/>
<text text-anchor="middle" x="120.88" y="-178.2" font-family="Times,serif" font-size="14.00">applied_spatial_force</text>
<polyline fill="none" stroke="black" points="217.75,-146.5 217.75,-661"/>
<text text-anchor="middle" x="363.75" y="-643.7" font-family="Times,serif" font-size="14.00">geometry_pose</text>
<polyline fill="none" stroke="black" points="217.75,-636.5 509.75,-636.5"/>
<text text-anchor="middle" x="363.75" y="-619.2" font-family="Times,serif" font-size="14.00">state</text>
<polyline fill="none" stroke="black" points="217.75,-612 509.75,-612"/>
<text text-anchor="middle" x="363.75" y="-594.7" font-family="Times,serif" font-size="14.00">continuous_state</text>
<polyline fill="none" stroke="black" points="217.75,-587.5 509.75,-587.5"/>
<text text-anchor="middle" x="363.75" y="-570.2" font-family="Times,serif" font-size="14.00">body_poses</text>
<polyline fill="none" stroke="black" points="217.75,-563 509.75,-563"/>
<text text-anchor="middle" x="363.75" y="-545.7" font-family="Times,serif" font-size="14.00">spatial_velocities</text>
<polyline fill="none" stroke="black" points="217.75,-538.5 509.75,-538.5"/>
<text text-anchor="middle" x="363.75" y="-521.2" font-family="Times,serif" font-size="14.00">spatial_accelerations</text>
<polyline fill="none" stroke="black" points="217.75,-514 509.75,-514"/>
<text text-anchor="middle" x="363.75" y="-496.7" font-family="Times,serif" font-size="14.00">generalized_acceleration</text>
<polyline fill="none" stroke="black" points="217.75,-489.5 509.75,-489.5"/>
<text text-anchor="middle" x="363.75" y="-472.2" font-family="Times,serif" font-size="14.00">WorldModelInstance_state</text>
<polyline fill="none" stroke="black" points="217.75,-465 509.75,-465"/>
<text text-anchor="middle" x="363.75" y="-447.7" font-family="Times,serif" font-size="14.00">WorldModelInstance_continuous_state</text>
<polyline fill="none" stroke="black" points="217.75,-440.5 509.75,-440.5"/>
<text text-anchor="middle" x="363.75" y="-423.2" font-family="Times,serif" font-size="14.00">WorldModelInstance_generalized_acceleration</text>
<polyline fill="none" stroke="black" points="217.75,-416 509.75,-416"/>
<text text-anchor="middle" x="363.75" y="-398.7" font-family="Times,serif" font-size="14.00">DefaultModelInstance_state</text>
<polyline fill="none" stroke="black" points="217.75,-391.5 509.75,-391.5"/>
<text text-anchor="middle" x="363.75" y="-374.2" font-family="Times,serif" font-size="14.00">DefaultModelInstance_continuous_state</text>
<polyline fill="none" stroke="black" points="217.75,-367 509.75,-367"/>
<text text-anchor="middle" x="363.75" y="-349.7" font-family="Times,serif" font-size="14.00">DefaultModelInstance_generalized_acceleration</text>
<polyline fill="none" stroke="black" points="217.75,-342.5 509.75,-342.5"/>
<text text-anchor="middle" x="363.75" y="-325.2" font-family="Times,serif" font-size="14.00">KneedCompassGait_state</text>
<polyline fill="none" stroke="black" points="217.75,-318 509.75,-318"/>
<text text-anchor="middle" x="363.75" y="-300.7" font-family="Times,serif" font-size="14.00">KneedCompassGait_continuous_state</text>
<polyline fill="none" stroke="black" points="217.75,-293.5 509.75,-293.5"/>
<text text-anchor="middle" x="363.75" y="-276.2" font-family="Times,serif" font-size="14.00">KneedCompassGait_generalized_acceleration</text>
<polyline fill="none" stroke="black" points="217.75,-269 509.75,-269"/>
<text text-anchor="middle" x="363.75" y="-251.7" font-family="Times,serif" font-size="14.00">WorldModelInstance_generalized_contact_forces</text>
<polyline fill="none" stroke="black" points="217.75,-244.5 509.75,-244.5"/>
<text text-anchor="middle" x="363.75" y="-227.2" font-family="Times,serif" font-size="14.00">DefaultModelInstance_generalized_contact_forces</text>
<polyline fill="none" stroke="black" points="217.75,-220 509.75,-220"/>
<text text-anchor="middle" x="363.75" y="-202.7" font-family="Times,serif" font-size="14.00">KneedCompassGait_generalized_contact_forces</text>
<polyline fill="none" stroke="black" points="217.75,-195.5 509.75,-195.5"/>
<text text-anchor="middle" x="363.75" y="-178.2" font-family="Times,serif" font-size="14.00">reaction_forces</text>
<polyline fill="none" stroke="black" points="217.75,-171 509.75,-171"/>
<text text-anchor="middle" x="363.75" y="-153.7" font-family="Times,serif" font-size="14.00">contact_results</text>
</g>
<!-- 4328820080 -->
<g id="node2" class="node">
<title>4328820080</title>
<polygon fill="none" stroke="black" points="626.62,-605.25 626.62,-678.75 795.88,-678.75 795.88,-605.25 626.62,-605.25"/>
<text text-anchor="middle" x="711.25" y="-661.45" font-family="Times,serif" font-size="14.00">scene_graph</text>
<polyline fill="none" stroke="black" points="626.62,-654.25 795.88,-654.25"/>
<text text-anchor="middle" x="687.88" y="-636.95" font-family="Times,serif" font-size="14.00">plant_pose</text>
<polyline fill="none" stroke="black" points="626.62,-629.75 749.12,-629.75"/>
<text text-anchor="middle" x="687.88" y="-612.45" font-family="Times,serif" font-size="14.00">plant_configuration</text>
<polyline fill="none" stroke="black" points="749.12,-605.25 749.12,-654.25"/>
<text text-anchor="middle" x="772.5" y="-624.95" font-family="Times,serif" font-size="14.00">query</text>
</g>
<!-- 4530088448&#45;&gt;4328820080 -->
<g id="edge1" class="edge">
<title>4530088448:y0&#45;&gt;4328820080:u0</title>
<path fill="none" stroke="black" d="M509.75,-649C557.16,-649 571.61,-643.05 613.87,-642.12"/>
<polygon fill="black" stroke="black" points="613.77,-645.62 623.74,-642.02 613.7,-638.62 613.77,-645.62"/>
</g>
<!-- 5887476720 -->
<g id="node3" class="node">
<title>5887476720</title>
<polygon fill="none" stroke="black" points="912.75,-276.75 912.75,-399.25 1264.75,-399.25 1264.75,-276.75 912.75,-276.75"/>
<text text-anchor="middle" x="1088.75" y="-381.95" font-family="Times,serif" font-size="14.00">osc.OperationalSpaceWalkingController@000000015eebc3f0</text>
<polyline fill="none" stroke="black" points="912.75,-374.75 1264.75,-374.75"/>
<text text-anchor="middle" x="1020" y="-357.45" font-family="Times,serif" font-size="14.00">x</text>
<polyline fill="none" stroke="black" points="912.75,-350.25 1127.25,-350.25"/>
<text text-anchor="middle" x="1020" y="-332.95" font-family="Times,serif" font-size="14.00">com_traj</text>
<polyline fill="none" stroke="black" points="912.75,-325.75 1127.25,-325.75"/>
<text text-anchor="middle" x="1020" y="-308.45" font-family="Times,serif" font-size="14.00">swing_foot_traj</text>
<polyline fill="none" stroke="black" points="912.75,-301.25 1127.25,-301.25"/>
<text text-anchor="middle" x="1020" y="-283.95" font-family="Times,serif" font-size="14.00">base_joint_traj</text>
<polyline fill="none" stroke="black" points="1127.25,-276.75 1127.25,-374.75"/>
<text text-anchor="middle" x="1195.62" y="-320.95" font-family="Times,serif" font-size="14.00">u</text>
</g>
<!-- 4530088448&#45;&gt;5887476720 -->
<g id="edge4" class="edge">
<title>4530088448:y1&#45;&gt;5887476720:u0</title>
<path fill="none" stroke="black" d="M509.75,-624C530.02,-624 528.7,-606.96 545.75,-596 685.38,-506.24 755.98,-536.87 876.75,-423 896.02,-404.83 886.02,-374.1 901.84,-365.37"/>
<polygon fill="black" stroke="black" points="902.24,-368.87 911.27,-363.32 900.76,-362.03 902.24,-368.87"/>
</g>
<!-- 5887642672 -->
<g id="node4" class="node">
<title>5887642672</title>
<polygon fill="none" stroke="black" points="556.25,-301.25 556.25,-374.75 866.25,-374.75 866.25,-301.25 556.25,-301.25"/>
<text text-anchor="middle" x="711.25" y="-357.45" font-family="Times,serif" font-size="14.00">footstep_planner.LipTrajPlanner@000000015eee4c30</text>
<polyline fill="none" stroke="black" points="556.25,-350.25 866.25,-350.25"/>
<text text-anchor="middle" x="618.12" y="-332.95" font-family="Times,serif" font-size="14.00">x</text>
<polyline fill="none" stroke="black" points="556.25,-325.75 680,-325.75"/>
<text text-anchor="middle" x="618.12" y="-308.45" font-family="Times,serif" font-size="14.00">vdes</text>
<polyline fill="none" stroke="black" points="680,-301.25 680,-350.25"/>
<text text-anchor="middle" x="772.75" y="-332.95" font-family="Times,serif" font-size="14.00">com_traj</text>
<polyline fill="none" stroke="black" points="680,-325.75 865.5,-325.75"/>
<text text-anchor="middle" x="772.75" y="-308.45" font-family="Times,serif" font-size="14.00">swing_foot_traj</text>
</g>
<!-- 4530088448&#45;&gt;5887642672 -->
<g id="edge8" class="edge">
<title>4530088448:y1&#45;&gt;5887642672:u0</title>
<path fill="none" stroke="black" d="M509.75,-624C569.96,-624 501.01,-373.68 544.57,-341.41"/>
<polygon fill="black" stroke="black" points="545.35,-344.84 553.81,-338.46 543.22,-338.17 545.35,-344.84"/>
</g>
<!-- 4328820080&#45;&gt;4530088448 -->
<g id="edge2" class="edge">
<title>4328820080:y0&#45;&gt;4530088448:u0</title>
<path fill="none" stroke="black" d="M772.25,-605C772.25,-540.28 688.39,-586.65 626.62,-606 566.56,-624.82 569.88,-667.39 509.75,-686 406.6,-717.92 100.84,-761.73 23.88,-686 16.59,-678.83 11.98,-648.15 15.72,-632.81"/>
<polygon fill="black" stroke="black" points="18.33,-635.14 21.92,-625.17 12.9,-630.73 18.33,-635.14"/>
</g>
<!-- 5900402256 -->
<g id="node7" class="node">
<title>5900402256</title>
<polygon fill="none" stroke="black" points="927.38,-617.5 927.38,-666.5 1250.12,-666.5 1250.12,-617.5 927.38,-617.5"/>
<text text-anchor="middle" x="1088.75" y="-649.2" font-family="Times,serif" font-size="14.00">drake/geometry/MeshcatVisualizer@000000015fb0fe50</text>
<polyline fill="none" stroke="black" points="927.38,-642 1250.12,-642"/>
<text text-anchor="middle" x="1024.62" y="-624.7" font-family="Times,serif" font-size="14.00">query_object</text>
<polyline fill="none" stroke="black" points="1121.88,-617.5 1121.88,-642"/>
<text text-anchor="middle" x="1185.75" y="-624.7" font-family="Times,serif" font-size="14.00"> </text>
</g>
<!-- 4328820080&#45;&gt;5900402256 -->
<g id="edge10" class="edge">
<title>4328820080:y0&#45;&gt;5900402256:u0</title>
<path fill="none" stroke="black" d="M797.25,-630C850.87,-630 867.03,-630 915.52,-630"/>
<polygon fill="black" stroke="black" points="915.24,-633.5 925.24,-630 915.24,-626.5 915.24,-633.5"/>
</g>
<!-- 5887476720&#45;&gt;4530088448 -->
<g id="edge3" class="edge">
<title>5887476720:y0&#45;&gt;4530088448:u4</title>
<path fill="none" stroke="black" d="M1195.75,-276C1195.75,-150.22 1014.76,-203.42 912.75,-277 872.06,-306.35 917.5,-354.72 876.75,-384 757.29,-469.85 657.28,-479.93 545.75,-384 464.64,-314.24 590.86,-215.76 509.75,-146 499.52,-137.2 33.44,-136.48 23.88,-146 11.36,-158.45 4.47,-286.53 15.97,-321.32"/>
<polygon fill="black" stroke="black" points="12.97,-323.17 21.93,-328.82 18.45,-318.81 12.97,-323.17"/>
</g>
<!-- 5887642672&#45;&gt;5887476720 -->
<g id="edge5" class="edge">
<title>5887642672:y0&#45;&gt;5887476720:u1</title>
<path fill="none" stroke="black" d="M866.25,-338C882.56,-338 889.21,-338 901.45,-338"/>
<polygon fill="black" stroke="black" points="901.24,-341.5 911.24,-338 901.24,-334.5 901.24,-341.5"/>
</g>
<!-- 5887642672&#45;&gt;5887476720 -->
<g id="edge6" class="edge">
<title>5887642672:y1&#45;&gt;5887476720:u2</title>
<path fill="none" stroke="black" d="M866.25,-313C882.56,-313 889.21,-313 901.45,-313"/>
<polygon fill="black" stroke="black" points="901.24,-316.5 911.24,-313 901.24,-309.5 901.24,-316.5"/>
</g>
<!-- 5900386128 -->
<g id="node5" class="node">
<title>5900386128</title>
<polygon fill="none" stroke="black" points="99.88,-78.5 99.88,-127.5 433.88,-127.5 433.88,-78.5 99.88,-78.5"/>
<text text-anchor="middle" x="266.88" y="-110.2" font-family="Times,serif" font-size="14.00">drake/systems/ConstantVectorSource@000000015fb0bf50</text>
<polyline fill="none" stroke="black" points="99.88,-103 433.88,-103"/>
<text text-anchor="middle" x="180.75" y="-85.7" font-family="Times,serif" font-size="14.00"> </text>
<polyline fill="none" stroke="black" points="261.62,-78.5 261.62,-103"/>
<text text-anchor="middle" x="347.38" y="-85.7" font-family="Times,serif" font-size="14.00">y0</text>
</g>
<!-- 5900386128&#45;&gt;5887642672 -->
<g id="edge9" class="edge">
<title>5900386128:y0&#45;&gt;5887642672:u1</title>
<path fill="none" stroke="black" d="M433.88,-91C473.31,-91 486.61,-105.07 509.75,-137 554.65,-198.98 482.82,-301.46 543.79,-312.1"/>
<polygon fill="black" stroke="black" points="543.5,-315.59 553.74,-312.88 544.05,-308.61 543.5,-315.59"/>
</g>
<!-- 5900394112 -->
<g id="node6" class="node">
<title>5900394112</title>
<polygon fill="none" stroke="black" points="545.75,-233.5 545.75,-282.5 876.75,-282.5 876.75,-233.5 545.75,-233.5"/>
<text text-anchor="middle" x="711.25" y="-265.2" font-family="Times,serif" font-size="14.00">drake/systems/ConstantValueSource@000000015fb0de80</text>
<polyline fill="none" stroke="black" points="545.75,-258 876.75,-258"/>
<text text-anchor="middle" x="625.62" y="-240.7" font-family="Times,serif" font-size="14.00"> </text>
<polyline fill="none" stroke="black" points="705.5,-233.5 705.5,-258"/>
<text text-anchor="middle" x="790.75" y="-240.7" font-family="Times,serif" font-size="14.00">y0</text>
</g>
<!-- 5900394112&#45;&gt;5887476720 -->
<g id="edge7" class="edge">
<title>5900394112:y0&#45;&gt;5887476720:u3</title>
<path fill="none" stroke="black" d="M876.75,-246C897,-246 891.66,-274.39 902.31,-285.03"/>
<polygon fill="black" stroke="black" points="900.74,-288.18 911.34,-288.46 903.23,-281.64 900.74,-288.18"/>
</g>
<!-- \n -->
<g id="node8" class="node">
<title>\n</title>
<ellipse fill="none" stroke="black" cx="266.88" cy="-42" rx="27" ry="18"/>
</g>
</g>
</svg>
